<svg width="70" height="32" viewBox="0 0 70 32" fill="none" xmlns="http://www.w3.org/2000/svg">
    <g clip-path="url(#clip0_22435_89796)">
        <path fill-rule="evenodd" clip-rule="evenodd" d="M26.0018 24.8904V30.7719C26.0018 31.3222 25.711 31.6318 25.1464 31.6318H23.9487C23.3841 31.6318 23.0933 31.3222 23.0933 30.7719V17.8739C23.0933 17.3064 23.3841 16.9969 23.9487 16.9969H24.8555C25.3004 16.9969 25.6426 17.1861 25.865 17.5988L29.1842 23.8758C29.3382 24.1509 29.458 24.2541 29.6803 24.2541C29.9028 24.2541 30.0568 24.1165 30.0568 23.7726V17.8739C30.0568 17.3064 30.3476 16.9969 30.9122 16.9969H32.1099C32.6745 16.9969 32.9654 17.3064 32.9654 17.8739V30.7719C32.9654 31.3222 32.6745 31.6318 32.1099 31.6318H31.1004C30.7583 31.6318 30.4161 31.4426 30.1936 31.0298L26.8745 24.7529C26.7205 24.4777 26.5665 24.3745 26.3783 24.3745C26.1216 24.3745 26.0018 24.5637 26.0018 24.8904ZM0.526113 26.9713L2.06597 26.6961C2.59632 26.6274 2.95563 26.8165 3.0754 27.3841C3.26362 28.3987 3.79397 28.9146 4.83762 28.9146C5.81291 28.9146 6.29193 28.3987 6.29193 27.6076C6.29193 26.6618 5.8129 26.249 4.64941 25.8707L3.33206 25.4579C1.09069 24.7529 0.0128077 23.2395 0.0128077 21.107C0.0128077 18.6478 1.72376 16.8077 4.52971 16.8077C7.42113 16.8077 9.09787 18.3555 9.50851 20.4535C9.62822 21.021 9.35452 21.365 8.75566 21.4682L7.33558 21.709C6.78812 21.7777 6.48014 21.5542 6.32615 21.021C6.06949 20.0408 5.43648 19.714 4.68363 19.714C3.89663 19.714 3.29784 20.23 3.29784 21.0554C3.29784 21.8465 3.70842 22.3452 4.87185 22.7235L6.51436 23.2395C8.90966 23.9962 9.62822 25.6471 9.62822 27.3496C9.62822 29.4133 8.31087 31.821 4.71785 31.821C2.06597 31.821 0.303681 30.3076 -0.141184 27.9859C-0.255209 27.4242 -0.0327764 27.0859 0.526113 26.9713ZM16.3522 13.8498V13.1963C16.3522 12.9383 16.4378 12.7492 16.7286 12.7492C17.259 12.7492 17.9605 12.9383 18.5251 13.2822L19.7569 12.0785C19.8767 11.9581 19.9109 11.9237 20.0649 11.9237C20.2531 11.9237 20.3558 12.044 20.3558 12.302V13.1963C20.3558 13.437 20.2874 13.6606 20.0991 13.7982L19.6543 14.2109C20.1334 14.7784 20.4756 15.5351 20.4756 16.395C20.4756 17.8223 19.5004 18.923 18.2343 18.923C17.2932 18.923 16.5746 18.3555 16.0956 17.6332L15.9073 17.8223C15.3428 18.3555 14.7439 18.8026 13.9569 18.8026C12.6908 18.8026 11.8354 17.788 11.8354 16.4293C11.8354 15.088 12.6908 14.0389 13.8542 14.0389C14.7439 14.0389 15.4968 14.5204 16.2153 15.5695L17.3274 14.4861C17.2248 14.4517 16.9853 14.4001 16.7286 14.3657C16.5062 14.3313 16.3522 14.1421 16.3522 13.8498ZM14.0767 17.1516C14.5215 17.1516 15.1888 16.8077 15.1888 16.4293C15.1888 16.137 14.5899 15.6899 14.1109 15.6899C13.666 15.6899 13.358 15.9478 13.358 16.4293C13.358 16.8937 13.7003 17.1516 14.0767 17.1516ZM17.259 16.6701C17.259 16.9281 17.5841 17.0829 17.9263 17.0829C18.4908 17.0829 18.9357 16.7733 18.9357 16.1026C18.9357 15.6555 18.8673 15.3459 18.5935 15.3459C18.5251 15.3459 18.4224 15.4148 18.3369 15.5007L17.4472 16.3262C17.259 16.5154 17.259 16.5498 17.259 16.6701ZM17.8236 26.9713V21.365C17.8236 20.7975 18.1145 20.5051 18.6791 20.5051H20.0307C20.5782 20.5051 20.8862 20.7975 20.8862 21.365V27.1089C20.8862 30.17 18.9357 31.8553 16.0956 31.8553C13.2555 31.8553 11.305 30.17 11.305 27.1089V21.365C11.305 20.7975 11.6129 20.5051 12.1604 20.5051H13.512C14.0767 20.5051 14.3676 20.7975 14.3676 21.365V26.9713C14.3676 28.1235 14.9663 28.8458 16.0956 28.8458C17.2248 28.8458 17.8236 28.1235 17.8236 26.9713ZM17.8236 6.88486V1.27859C17.8236 0.711077 18.1145 0.418701 18.6791 0.418701H20.0307C20.5782 0.418701 20.8862 0.711077 20.8862 1.27859V7.03963C20.8862 10.0836 18.9357 11.7689 16.0956 11.7689C13.2555 11.7689 11.305 10.0836 11.305 7.03963V1.27859C11.305 0.711077 11.6129 0.418701 12.1604 0.418701H13.512C14.0767 0.418701 14.3676 0.711077 14.3676 1.27859V6.88486C14.3676 8.05429 14.9663 8.7594 16.0956 8.7594C17.2248 8.7594 17.8236 8.05429 17.8236 6.88486ZM26.0018 8.31225V14.1765C26.0018 14.7441 25.711 15.0536 25.1464 15.0536H23.9487C23.3841 15.0536 23.0933 14.7441 23.0933 14.1765V1.27859C23.0933 0.711077 23.3841 0.418701 23.9487 0.418701H24.8555C25.3004 0.418701 25.6426 0.607893 25.865 1.02063L29.1842 7.29759C29.3382 7.55555 29.458 7.67597 29.6803 7.67597C29.9028 7.67597 30.0568 7.5212 30.0568 7.19441V1.27859C30.0568 0.711077 30.3476 0.418701 30.9122 0.418701H32.1099C32.6745 0.418701 32.9654 0.711077 32.9654 1.27859V14.1765C32.9654 14.7441 32.6745 15.0536 32.1099 15.0536H31.1004C30.7583 15.0536 30.4161 14.8644 30.1936 14.4517L26.8745 8.15748C26.7205 7.89952 26.5665 7.79633 26.3783 7.79633C26.1216 7.79633 26.0018 7.96829 26.0018 8.31225ZM8.46479 3.49704H5.4707C4.90607 3.49704 4.61519 3.80659 4.61519 4.3741V6.24858C4.61519 6.81609 4.90607 7.10846 5.4707 7.10846H7.866C8.43057 7.10846 8.72145 7.41802 8.72145 7.96829V9.32691C8.72145 9.89442 8.43057 10.1867 7.866 10.1867H5.4707C4.90607 10.1867 4.61519 10.4963 4.61519 11.0638V14.1765C4.61519 14.7441 4.30727 15.0536 3.74264 15.0536H2.32256C1.77509 15.0536 1.46711 14.7441 1.46711 14.1765V1.27859C1.46711 0.711077 1.77509 0.418701 2.32256 0.418701H8.46479C9.02943 0.418701 9.3203 0.711077 9.3203 1.27859V2.63715C9.3203 3.20466 9.02943 3.49704 8.46479 3.49704Z" fill="#EA1D24"/>
        <path fill-rule="evenodd" clip-rule="evenodd" d="M52.5212 28.9147L66.9786 26.1976C68.0568 26.0084 68.8092 26.5071 68.8092 27.6421V30.0841C68.8092 31.1504 68.1764 31.7179 67.1158 31.7179H52.7778C52.2136 31.7179 51.8714 31.4083 51.8368 30.8064L51.7688 29.9293C51.7342 29.379 51.9569 29.0351 52.5212 28.9147ZM50.7076 24.0135L64.4977 16.1199C65.4387 15.5868 66.3288 15.776 66.705 16.8422L67.5775 19.3358C67.9197 20.3504 67.458 21.0727 66.4823 21.3995L51.9223 26.5415C51.392 26.7307 51.0159 26.5759 50.7422 26.0428L50.383 25.2517C50.1088 24.7243 50.2172 24.3116 50.7076 24.0135ZM52.898 5.0965L45.1473 18.3556C44.8564 18.8715 44.4458 18.9575 43.9154 18.6823L43.0599 18.2696C42.5296 18.0116 42.3414 17.6677 42.5296 17.1346L47.5939 3.10159C47.9361 2.12135 48.6547 1.6742 49.664 2.00099L52.145 2.87805C53.1886 3.25637 53.4622 4.11626 52.898 5.0965ZM42.752 2.41372L40.1172 16.4639C40.0145 17.0658 39.6723 17.2549 39.1077 17.2206L38.2522 17.1346C37.6363 17.1002 37.3455 16.7563 37.3455 16.2059V2.03534C37.3455 0.986329 37.9443 0.384403 38.9879 0.418819L41.3319 0.539178C42.444 0.573594 42.9402 1.3303 42.752 2.41372ZM46.8411 31.7179H38.8511C37.8758 31.7179 37.3455 31.1847 37.3455 30.2045V22.1562C37.3455 21.1759 37.91 20.5741 38.8853 20.7288C43.7615 21.3995 47.5939 25.2861 48.2783 30.1701C48.4152 31.1504 47.8163 31.7179 46.8411 31.7179Z" fill="#FFEA2E"/>
        <path d="M57.5171 7.55567L47.2517 19.8518C46.8753 20.3161 46.9608 20.7288 47.3715 21.1416L47.9703 21.7434C48.3809 22.1562 48.7916 22.2078 49.2532 21.8294L61.6751 11.4766C62.496 10.806 62.6162 9.89454 61.8286 9.13784L59.8439 7.29771C59.057 6.57543 58.1845 6.76462 57.5171 7.55567Z" fill="#FFEA2E"/>
    </g>
    <defs>
        <clipPath id="clip0_22435_89796">
            <rect width="69.2245" height="32" fill="white"/>
        </clipPath>
    </defs>
</svg>
